<?xml version="1.0" standalone="no"?>
<!DOCTYPE svg PUBLIC "-//W3C//DTD SVG 20010904//EN"
 "http://www.w3.org/TR/2001/REC-SVG-20010904/DTD/svg10.dtd">
<svg version="1.0" xmlns="http://www.w3.org/2000/svg"
 width="1142.000000pt" height="985.000000pt" viewBox="0 0 1142.000000 985.000000"
 preserveAspectRatio="xMidYMid meet">

<g transform="translate(0.000000,985.000000) scale(0.100000,-0.100000)"
fill="#000000" stroke="none">
<path d="M0 4925 l0 -4925 5710 0 5710 0 0 4925 0 4925 -5710 0 -5710 0 0
-4925z m10146 2443 l1221 -2443 -1221 -2443 -1221 -2442 -3220 0 -3220 0
-1220 2440 -1220 2440 1223 2445 1222 2445 3218 0 3217 0 1221 -2442z"/>
<path d="M6610 6119 c-36 -17 -56 -19 -100 -14 -96 12 -101 11 -121 -15 -33
-43 -61 -176 -159 -740 -57 -330 -97 -535 -130 -676 -29 -123 -76 -254 -90
-254 -12 0 -61 60 -72 89 -5 14 -11 40 -13 56 -1 17 -30 102 -63 190 -32 88
-63 185 -66 216 -11 92 -57 223 -141 404 -21 44 -50 114 -65 155 -151 404
-150 402 -100 466 65 81 21 102 -215 103 -210 1 -208 2 -258 -160 -97 -320
-137 -469 -137 -514 0 -31 -50 -225 -142 -554 -127 -455 -162 -561 -187 -561
-9 0 -148 421 -185 560 -14 52 -66 217 -116 365 -109 325 -135 413 -165 569
-13 65 -28 123 -33 128 -6 6 -5 19 4 36 8 15 14 44 14 64 0 60 -21 68 -180 68
-240 0 -249 -19 -151 -308 88 -259 168 -530 174 -588 3 -29 29 -111 56 -184
28 -73 53 -152 55 -174 4 -44 63 -274 120 -470 78 -262 178 -498 221 -518 14
-6 33 -5 61 4 34 12 45 12 74 0 18 -7 63 -16 100 -19 l66 -6 31 49 c17 27 49
93 72 147 93 225 310 941 396 1309 45 192 59 233 76 223 16 -10 43 -74 89
-203 24 -68 49 -126 56 -129 8 -3 11 -15 8 -31 -3 -18 25 -125 80 -303 47
-152 86 -291 86 -309 0 -18 24 -87 55 -155 30 -68 55 -136 55 -151 0 -16 23
-103 51 -194 67 -219 66 -217 234 -253 152 -32 186 -33 207 -9 61 68 137 296
363 1086 120 420 125 442 125 532 0 159 47 449 86 526 30 59 30 86 1 129 -28
42 -63 47 -127 18z m-82 -126 l52 -6 0 -42 c0 -48 0 -48 -103 -60 l-58 -7 12
26 c10 20 10 29 1 38 -13 13 -16 51 -5 62 4 4 17 4 28 1 11 -3 44 -8 73 -12z
m-2674 -18 c3 -8 14 -15 25 -15 11 0 33 -12 50 -26 37 -31 67 -119 106 -310
16 -74 41 -161 61 -205 30 -67 32 -79 23 -113 -10 -36 -72 -116 -90 -116 -4 0
-13 9 -19 20 -8 15 -5 25 20 53 35 40 37 47 11 47 -29 0 -43 23 -32 53 5 14
15 28 20 32 23 14 9 23 -19 12 -22 -8 -36 -8 -48 -1 -22 13 -51 73 -59 119 -5
31 -1 41 28 72 32 33 33 35 9 28 -14 -4 -30 -10 -37 -12 -6 -3 -14 12 -18 38
-8 45 -76 242 -100 289 -14 27 -14 29 13 38 39 15 49 14 56 -3z m1348 -15 c6
0 7 -7 4 -16 -5 -12 -2 -15 11 -9 74 29 120 11 166 -67 24 -42 60 -149 71
-217 l6 -33 -65 4 c-86 5 -94 15 -51 62 30 31 34 40 24 55 -11 18 -14 16 -43
-15 -30 -31 -35 -33 -63 -23 -17 6 -45 26 -61 44 -28 32 -29 32 -47 15 -23
-22 -64 -35 -64 -21 0 6 14 26 31 46 30 34 30 35 9 35 -21 0 -22 3 -18 57 4
43 10 61 28 75 13 10 30 16 37 13 8 -3 19 -5 25 -5z m1332 -121 c-19 -21 -128
-99 -138 -99 -4 0 -6 12 -6 28 0 56 46 89 129 91 34 1 34 1 15 -20z m71 -82
c-9 -45 -43 -80 -93 -95 -131 -40 -123 16 18 116 65 46 86 40 75 -21z m-1475
-75 c0 -9 -90 -55 -96 -49 -3 2 5 16 17 30 14 18 30 27 50 27 16 0 29 -4 29
-8z m-20 -92 c0 -16 -7 -20 -36 -20 -38 0 -38 15 0 30 32 13 36 12 36 -10z
m1400 15 c0 -8 -154 -95 -169 -95 -10 0 -12 8 -7 32 11 56 31 68 108 68 37 0
68 -2 68 -5z m-1100 -40 c-14 -17 -46 -20 -55 -5 -3 5 9 13 27 18 39 11 45 8
28 -13z m89 -30 c12 -25 21 -60 21 -79 0 -42 -33 -86 -65 -86 -41 0 -41 22 1
58 21 19 33 32 27 28 -19 -11 -84 5 -90 21 -3 9 12 32 38 59 24 24 44 44 45
44 1 0 11 -20 23 -45z m1064 8 c-13 -82 -60 -123 -140 -123 -35 0 -73 14 -63
23 47 39 186 137 196 137 9 0 11 -11 7 -37z m-1473 -30 c-1 -24 -48 -53 -86
-53 -17 0 -19 46 -1 53 19 8 87 8 87 0z m-4 -110 c-4 -21 -17 -47 -30 -59 -18
-16 -20 -24 -12 -38 9 -13 7 -20 -8 -31 -22 -16 -84 -31 -93 -21 -3 3 0 27 7
52 16 57 85 134 119 134 21 0 23 -3 17 -37z m484 -59 c6 -14 10 -36 10 -50 0
-22 -4 -24 -50 -24 -52 0 -58 6 -39 43 31 60 64 73 79 31z m895 1 c-51 -44
-99 -73 -127 -80 -33 -8 -34 -5 -12 41 21 44 56 63 119 64 l50 0 -30 -25z m46
-112 c-16 -58 -47 -82 -125 -95 -36 -6 -69 -8 -73 -4 -9 9 40 59 127 129 73
59 75 60 78 34 2 -14 -2 -43 -7 -64z m-2336 -62 c22 -67 22 -99 -1 -162 -21
-56 -14 -71 19 -41 33 31 37 28 37 -23 l0 -45 -50 0 c-38 0 -50 -4 -50 -15 0
-12 14 -15 65 -15 75 0 79 -6 39 -66 -29 -44 -51 -64 -71 -64 -28 0 -93 176
-93 252 0 28 7 42 31 62 17 14 36 27 42 28 7 1 -14 4 -46 7 l-57 6 34 71 c49
103 69 104 101 5z m1393 51 c9 -6 4 -16 -17 -36 -33 -32 -71 -29 -71 5 0 29
58 49 88 31z m-554 -24 c-9 -29 -35 -66 -68 -97 -21 -20 -29 -22 -39 -12 -9
10 -8 15 7 27 11 8 26 14 33 14 10 0 10 5 1 26 -11 23 -10 29 11 45 13 11 32
19 43 19 15 0 18 -4 12 -22z m620 -75 c5 -16 6 -45 7 -127 0 -21 -38 -66 -57
-66 -7 0 -25 16 -40 35 -22 29 -24 38 -14 50 10 12 10 21 -1 46 -12 31 -11 33
24 66 31 27 41 32 56 23 11 -5 22 -18 25 -27z m785 -39 c-7 -9 -40 -37 -72
-62 l-60 -45 7 39 c10 52 26 67 83 75 27 3 50 7 52 8 2 0 -3 -6 -10 -15z
m-1449 -46 c0 -57 -45 -134 -94 -160 -18 -10 -19 -7 -13 43 6 66 23 104 51
117 29 15 56 14 56 0z m1485 -35 c-13 -87 -43 -120 -123 -138 -21 -4 -38 -2
-47 5 -12 10 -8 20 28 62 34 41 129 118 146 118 2 0 0 -21 -4 -47z m-751 -100
c10 -32 21 -64 23 -70 3 -7 -2 -13 -11 -13 -9 0 -32 -16 -52 -35 -53 -53 -86
-46 -43 9 12 15 20 28 18 30 -2 2 -14 9 -26 15 -13 6 -23 17 -23 25 0 17 69
96 84 96 7 0 20 -26 30 -57z m-922 -438 l-120 -330 -71 -38 c-64 -34 -171 -61
-171 -43 0 4 8 18 17 32 l16 26 -45 -7 c-40 -6 -46 -4 -61 19 -24 36 -21 55 9
66 48 19 78 12 114 -25 19 -19 43 -35 53 -35 48 0 131 79 163 156 9 21 35 112
59 203 54 206 78 273 119 319 30 35 31 35 34 11 1 -13 -51 -172 -116 -354z
m1497 319 c-18 -22 -49 -37 -49 -24 0 18 53 66 58 52 2 -7 -2 -20 -9 -28z m87
-60 c-13 -67 -76 -113 -135 -97 -48 12 -5 83 83 133 57 33 64 28 52 -36z
m-596 33 c0 -33 -28 -55 -80 -62 l-45 -7 47 46 c52 51 78 59 78 23z m-1476 -3
c13 -33 5 -126 -14 -176 -11 -28 -18 -53 -16 -55 8 -8 34 10 46 33 11 20 16
22 27 11 7 -7 17 -28 23 -46 12 -42 -14 -71 -64 -71 -48 0 -74 26 -95 96 l-18
62 41 23 41 24 -47 3 c-27 2 -48 7 -48 13 0 5 19 30 41 54 43 46 72 57 83 29z
m1492 -100 c-3 -9 -6 -20 -6 -25 0 -18 -73 -89 -91 -89 -37 0 -53 75 -21 102
23 21 40 26 86 27 31 1 37 -2 32 -15z m43 -96 c24 -67 12 -91 -51 -102 -26 -5
-40 -2 -52 10 -18 17 -17 20 32 86 38 51 55 52 71 6z m436 -1 c-16 -25 -59
-59 -87 -70 -16 -6 -18 0 -18 43 l0 50 60 0 60 0 -15 -23z m13 -89 c-21 -97
-95 -184 -148 -176 -30 4 -28 21 6 38 16 8 31 16 33 18 3 1 -4 9 -15 17 -18
15 -16 18 50 80 37 36 72 65 76 65 4 0 4 -19 -2 -42z m-441 -81 c-14 -23 -34
-50 -45 -60 -20 -18 -21 -18 -37 7 -9 13 -15 37 -13 53 3 24 10 30 58 44 30 9
57 13 58 8 2 -5 -7 -28 -21 -52z m-1467 31 c0 -45 -96 -127 -119 -102 -14 14
-22 68 -13 82 5 7 31 17 58 21 71 12 74 12 74 -1z m1530 -92 c0 -39 -14 -53
-58 -62 -28 -6 -32 -4 -32 16 0 25 66 94 81 85 5 -4 9 -21 9 -39z m-1497 -26
c-3 -64 -18 -80 -75 -80 -41 0 -48 13 -27 53 19 37 73 88 89 84 12 -2 14 -15
13 -57z m1807 -26 c-19 -50 -50 -82 -95 -100 -25 -9 -48 -15 -50 -12 -4 4 144
138 152 138 1 0 -2 -12 -7 -26z m-287 -71 c-3 -10 -15 -30 -25 -45 -18 -26
-18 -27 -1 -38 14 -9 9 -10 -27 -6 -47 5 -70 25 -70 62 0 17 8 24 38 32 20 5
49 10 64 11 22 1 26 -2 21 -16z m127 -122 c0 -16 -130 -123 -144 -118 -7 3
-21 26 -29 51 -15 45 -15 46 6 50 12 3 40 9 62 14 52 13 105 14 105 3z m90
-13 c-2 -71 -40 -128 -86 -128 -29 0 -31 18 -7 67 21 46 93 93 93 61z m-1500
-27 c0 -17 -10 -42 -22 -56 -22 -25 -25 -26 -74 -15 -29 6 -60 17 -70 24 -17
13 -16 15 14 30 27 14 120 43 145 45 4 1 7 -12 7 -28z"/>
<path d="M9790 6119 c-36 -17 -56 -19 -100 -14 -96 12 -101 11 -121 -15 -33
-43 -61 -176 -159 -740 -57 -330 -97 -535 -130 -676 -29 -123 -76 -254 -90
-254 -12 0 -61 60 -72 89 -5 14 -11 40 -13 56 -1 17 -30 102 -63 190 -32 88
-63 185 -66 216 -11 92 -57 223 -141 404 -21 44 -50 114 -65 155 -151 404
-150 402 -100 466 65 81 21 102 -215 103 -210 1 -208 2 -258 -160 -97 -320
-137 -469 -137 -514 0 -31 -50 -225 -142 -554 -127 -455 -162 -561 -187 -561
-9 0 -148 421 -185 560 -14 52 -66 217 -116 365 -109 325 -135 413 -165 569
-13 65 -28 123 -33 128 -6 6 -5 19 4 36 8 15 14 44 14 64 0 60 -21 68 -180 68
-240 0 -249 -19 -151 -308 88 -259 168 -530 174 -588 3 -29 29 -111 56 -184
28 -73 53 -152 55 -174 4 -44 63 -274 120 -470 78 -262 178 -498 221 -518 14
-6 33 -5 61 4 34 12 45 12 74 0 18 -7 63 -16 100 -19 l66 -6 31 49 c17 27 49
93 72 147 93 225 310 941 396 1309 45 192 59 233 76 223 16 -10 43 -74 89
-203 24 -68 49 -126 56 -129 8 -3 11 -15 8 -31 -3 -18 25 -125 80 -303 47
-152 86 -291 86 -309 0 -18 24 -87 55 -155 30 -68 55 -136 55 -151 0 -16 23
-103 51 -194 67 -219 66 -217 234 -253 152 -32 186 -33 207 -9 61 68 137 296
363 1086 120 420 125 442 125 532 0 159 47 449 86 526 30 59 30 86 1 129 -28
42 -63 47 -127 18z m-82 -126 l52 -6 0 -42 c0 -48 0 -48 -103 -60 l-58 -7 12
26 c10 20 10 29 1 38 -13 13 -16 51 -5 62 4 4 17 4 28 1 11 -3 44 -8 73 -12z
m-2674 -18 c3 -8 14 -15 25 -15 11 0 33 -12 50 -26 37 -31 67 -119 106 -310
16 -74 41 -161 61 -205 30 -67 32 -79 23 -113 -10 -36 -72 -116 -90 -116 -4 0
-13 9 -19 20 -8 15 -5 25 20 53 35 40 37 47 11 47 -29 0 -43 23 -32 53 5 14
15 28 20 32 23 14 9 23 -19 12 -22 -8 -36 -8 -48 -1 -22 13 -51 73 -59 119 -5
31 -1 41 28 72 32 33 33 35 9 28 -14 -4 -30 -10 -37 -12 -6 -3 -14 12 -18 38
-8 45 -76 242 -100 289 -14 27 -14 29 13 38 39 15 49 14 56 -3z m1348 -15 c6
0 7 -7 4 -16 -5 -12 -2 -15 11 -9 74 29 120 11 166 -67 24 -42 60 -149 71
-217 l6 -33 -65 4 c-86 5 -94 15 -51 62 30 31 34 40 24 55 -11 18 -14 16 -43
-15 -30 -31 -35 -33 -63 -23 -17 6 -45 26 -61 44 -28 32 -29 32 -47 15 -23
-22 -64 -35 -64 -21 0 6 14 26 31 46 30 34 30 35 9 35 -21 0 -22 3 -18 57 4
43 10 61 28 75 13 10 30 16 37 13 8 -3 19 -5 25 -5z m1332 -121 c-19 -21 -128
-99 -138 -99 -4 0 -6 12 -6 28 0 56 46 89 129 91 34 1 34 1 15 -20z m71 -82
c-9 -45 -43 -80 -93 -95 -131 -40 -123 16 18 116 65 46 86 40 75 -21z m-1475
-75 c0 -9 -90 -55 -96 -49 -3 2 5 16 17 30 14 18 30 27 50 27 16 0 29 -4 29
-8z m-20 -92 c0 -16 -7 -20 -36 -20 -38 0 -38 15 0 30 32 13 36 12 36 -10z
m1400 15 c0 -8 -154 -95 -169 -95 -10 0 -12 8 -7 32 11 56 31 68 108 68 37 0
68 -2 68 -5z m-1100 -40 c-14 -17 -46 -20 -55 -5 -3 5 9 13 27 18 39 11 45 8
28 -13z m89 -30 c12 -25 21 -60 21 -79 0 -42 -33 -86 -65 -86 -41 0 -41 22 1
58 21 19 33 32 27 28 -19 -11 -84 5 -90 21 -3 9 12 32 38 59 24 24 44 44 45
44 1 0 11 -20 23 -45z m1064 8 c-13 -82 -60 -123 -140 -123 -35 0 -73 14 -63
23 47 39 186 137 196 137 9 0 11 -11 7 -37z m-1473 -30 c-1 -24 -48 -53 -86
-53 -17 0 -19 46 -1 53 19 8 87 8 87 0z m-4 -110 c-4 -21 -17 -47 -30 -59 -18
-16 -20 -24 -12 -38 9 -13 7 -20 -8 -31 -22 -16 -84 -31 -93 -21 -3 3 0 27 7
52 16 57 85 134 119 134 21 0 23 -3 17 -37z m484 -59 c6 -14 10 -36 10 -50 0
-22 -4 -24 -50 -24 -52 0 -58 6 -39 43 31 60 64 73 79 31z m895 1 c-51 -44
-99 -73 -127 -80 -33 -8 -34 -5 -12 41 21 44 56 63 119 64 l50 0 -30 -25z m46
-112 c-16 -58 -47 -82 -125 -95 -36 -6 -69 -8 -73 -4 -9 9 40 59 127 129 73
59 75 60 78 34 2 -14 -2 -43 -7 -64z m-2336 -62 c22 -67 22 -99 -1 -162 -21
-56 -14 -71 19 -41 33 31 37 28 37 -23 l0 -45 -50 0 c-38 0 -50 -4 -50 -15 0
-12 14 -15 65 -15 75 0 79 -6 39 -66 -29 -44 -51 -64 -71 -64 -28 0 -93 176
-93 252 0 28 7 42 31 62 17 14 36 27 42 28 7 1 -14 4 -46 7 l-57 6 34 71 c49
103 69 104 101 5z m1393 51 c9 -6 4 -16 -17 -36 -33 -32 -71 -29 -71 5 0 29
58 49 88 31z m-554 -24 c-9 -29 -35 -66 -68 -97 -21 -20 -29 -22 -39 -12 -9
10 -8 15 7 27 11 8 26 14 33 14 10 0 10 5 1 26 -11 23 -10 29 11 45 13 11 32
19 43 19 15 0 18 -4 12 -22z m620 -75 c5 -16 6 -45 7 -127 0 -21 -38 -66 -57
-66 -7 0 -25 16 -40 35 -22 29 -24 38 -14 50 10 12 10 21 -1 46 -12 31 -11 33
24 66 31 27 41 32 56 23 11 -5 22 -18 25 -27z m785 -39 c-7 -9 -40 -37 -72
-62 l-60 -45 7 39 c10 52 26 67 83 75 27 3 50 7 52 8 2 0 -3 -6 -10 -15z
m-1449 -46 c0 -57 -45 -134 -94 -160 -18 -10 -19 -7 -13 43 6 66 23 104 51
117 29 15 56 14 56 0z m1485 -35 c-13 -87 -43 -120 -123 -138 -21 -4 -38 -2
-47 5 -12 10 -8 20 28 62 34 41 129 118 146 118 2 0 0 -21 -4 -47z m-751 -100
c10 -32 21 -64 23 -70 3 -7 -2 -13 -11 -13 -9 0 -32 -16 -52 -35 -53 -53 -86
-46 -43 9 12 15 20 28 18 30 -2 2 -14 9 -26 15 -13 6 -23 17 -23 25 0 17 69
96 84 96 7 0 20 -26 30 -57z m-922 -438 l-120 -330 -71 -38 c-64 -34 -171 -61
-171 -43 0 4 8 18 17 32 l16 26 -45 -7 c-40 -6 -46 -4 -61 19 -24 36 -21 55 9
66 48 19 78 12 114 -25 19 -19 43 -35 53 -35 48 0 131 79 163 156 9 21 35 112
59 203 54 206 78 273 119 319 30 35 31 35 34 11 1 -13 -51 -172 -116 -354z
m1497 319 c-18 -22 -49 -37 -49 -24 0 18 53 66 58 52 2 -7 -2 -20 -9 -28z m87
-60 c-13 -67 -76 -113 -135 -97 -48 12 -5 83 83 133 57 33 64 28 52 -36z
m-596 33 c0 -33 -28 -55 -80 -62 l-45 -7 47 46 c52 51 78 59 78 23z m-1476 -3
c13 -33 5 -126 -14 -176 -11 -28 -18 -53 -16 -55 8 -8 34 10 46 33 11 20 16
22 27 11 7 -7 17 -28 23 -46 12 -42 -14 -71 -64 -71 -48 0 -74 26 -95 96 l-18
62 41 23 41 24 -47 3 c-27 2 -48 7 -48 13 0 5 19 30 41 54 43 46 72 57 83 29z
m1492 -100 c-3 -9 -6 -20 -6 -25 0 -18 -73 -89 -91 -89 -37 0 -53 75 -21 102
23 21 40 26 86 27 31 1 37 -2 32 -15z m43 -96 c24 -67 12 -91 -51 -102 -26 -5
-40 -2 -52 10 -18 17 -17 20 32 86 38 51 55 52 71 6z m436 -1 c-16 -25 -59
-59 -87 -70 -16 -6 -18 0 -18 43 l0 50 60 0 60 0 -15 -23z m13 -89 c-21 -97
-95 -184 -148 -176 -30 4 -28 21 6 38 16 8 31 16 33 18 3 1 -4 9 -15 17 -18
15 -16 18 50 80 37 36 72 65 76 65 4 0 4 -19 -2 -42z m-441 -81 c-14 -23 -34
-50 -45 -60 -20 -18 -21 -18 -37 7 -9 13 -15 37 -13 53 3 24 10 30 58 44 30 9
57 13 58 8 2 -5 -7 -28 -21 -52z m-1467 31 c0 -45 -96 -127 -119 -102 -14 14
-22 68 -13 82 5 7 31 17 58 21 71 12 74 12 74 -1z m1530 -92 c0 -39 -14 -53
-58 -62 -28 -6 -32 -4 -32 16 0 25 66 94 81 85 5 -4 9 -21 9 -39z m-1497 -26
c-3 -64 -18 -80 -75 -80 -41 0 -48 13 -27 53 19 37 73 88 89 84 12 -2 14 -15
13 -57z m1807 -26 c-19 -50 -50 -82 -95 -100 -25 -9 -48 -15 -50 -12 -4 4 144
138 152 138 1 0 -2 -12 -7 -26z m-287 -71 c-3 -10 -15 -30 -25 -45 -18 -26
-18 -27 -1 -38 14 -9 9 -10 -27 -6 -47 5 -70 25 -70 62 0 17 8 24 38 32 20 5
49 10 64 11 22 1 26 -2 21 -16z m127 -122 c0 -16 -130 -123 -144 -118 -7 3
-21 26 -29 51 -15 45 -15 46 6 50 12 3 40 9 62 14 52 13 105 14 105 3z m90
-13 c-2 -71 -40 -128 -86 -128 -29 0 -31 18 -7 67 21 46 93 93 93 61z m-1500
-27 c0 -17 -10 -42 -22 -56 -22 -25 -25 -26 -74 -15 -29 6 -60 17 -70 24 -17
13 -16 15 14 30 27 14 120 43 145 45 4 1 7 -12 7 -28z"/>
<path d="M2540 6110 c-118 -13 -272 -53 -355 -94 -129 -63 -232 -179 -312
-351 -25 -54 -28 -70 -27 -160 1 -162 57 -297 158 -380 32 -26 189 -99 535
-250 270 -118 505 -222 522 -232 63 -38 124 -172 123 -273 -1 -147 -91 -229
-314 -287 -74 -19 -120 -25 -205 -25 -141 0 -277 11 -290 23 -5 5 -34 9 -65
10 -51 0 -66 6 -195 83 -104 62 -143 81 -151 72 -7 -6 -20 -38 -29 -71 -25
-90 -52 -135 -85 -147 l-29 -10 20 -40 c26 -51 94 -125 133 -145 17 -9 67 -20
111 -24 44 -5 132 -15 195 -24 192 -25 439 -31 543 -11 88 17 249 67 270 84 7
6 39 15 72 22 86 17 151 48 185 86 29 34 46 81 130 367 57 192 31 307 -100
450 -115 126 -277 212 -427 227 -111 12 -167 31 -258 91 -119 78 -208 119
-257 119 -57 0 -118 32 -191 99 -88 81 -117 132 -117 200 2 144 78 227 265
287 97 31 238 42 323 25 76 -15 145 -43 361 -147 96 -46 180 -84 188 -84 7 0
27 21 43 47 29 46 30 49 30 183 l0 136 -37 36 c-34 32 -49 37 -152 57 -228 45
-473 65 -611 51z m355 -101 c236 -34 375 -68 375 -92 0 -6 -9 -46 -21 -88 -20
-76 -21 -78 -45 -67 -31 14 -40 49 -25 98 6 20 11 42 11 49 0 15 -25 14 -58
-3 -15 -7 -37 -17 -49 -20 -21 -7 -23 -4 -23 25 l0 33 -28 -27 c-35 -33 -39
-33 -75 1 -20 18 -31 23 -34 15 -9 -24 -63 -15 -94 16 -26 26 -32 28 -57 19
-52 -20 -104 7 -88 47 7 20 42 19 211 -6z m-281 -26 c-22 -11 -41 -13 -60 -8
l-29 8 25 7 c14 5 41 8 60 8 l35 1 -31 -16z m-265 -39 c-32 -39 -167 -83 -157
-52 8 22 52 47 108 62 62 15 69 14 49 -10z m791 -67 c0 -2 -10 -12 -21 -23
-22 -19 -22 -19 -10 4 10 18 31 31 31 19z m-1006 -74 c-8 -37 -36 -75 -65 -90
-30 -15 -36 -3 -19 38 13 29 63 79 81 79 5 0 7 -12 3 -27z m-84 -148 c0 -10
-11 -15 -35 -15 -54 0 -43 27 13 29 13 1 22 -5 22 -14z m-10 -63 c0 -18 -33
-52 -50 -52 -18 0 -40 27 -40 49 0 6 20 11 45 11 25 0 45 -3 45 -8z m-25 -139
c-3 -16 -11 -32 -16 -38 -15 -15 -44 8 -47 39 -3 24 0 26 33 26 35 0 37 -1 30
-27z m15 -68 c-7 -8 -22 -15 -34 -15 -20 1 -20 2 4 15 33 19 46 19 30 0z m-7
-72 c-7 -2 -19 -2 -25 0 -7 3 -2 5 12 5 14 0 19 -2 13 -5z m92 -33 c0 -9 -11
-16 -27 -18 -30 -4 -36 6 -16 26 16 16 43 11 43 -8z m75 -51 c0 -22 -22 -49
-40 -49 -53 0 -68 32 -22 48 37 14 62 14 62 1z m91 -49 l24 -19 -48 -1 c-45 0
-47 1 -37 20 14 25 31 25 61 0z m148 -63 c8 -11 6 -18 -9 -32 -20 -18 -22 -18
-63 2 l-42 21 45 10 c25 5 48 10 51 11 4 1 12 -5 18 -12z m110 -40 c14 -6 26
-18 29 -26 4 -11 -5 -13 -43 -9 -43 5 -64 19 -65 41 0 11 53 8 79 -6z m230
-133 c2 -2 -5 -4 -16 -4 -12 0 -31 9 -44 20 l-24 20 40 -16 c22 -9 42 -18 44
-20z m151 -54 c0 -5 -4 -10 -9 -10 -6 0 -13 5 -16 10 -3 6 1 10 9 10 9 0 16
-4 16 -10z m167 -32 c16 -13 17 -44 2 -54 -8 -5 -8 -9 1 -14 7 -4 11 -13 9
-18 -9 -24 -139 59 -139 89 0 21 101 19 127 -3z m167 -98 c47 -17 28 -30 -44
-30 -69 0 -86 9 -52 29 22 13 64 14 96 1z m121 -105 c14 -13 25 -29 25 -36 0
-18 -68 -78 -96 -85 -35 -9 -43 4 -15 27 l23 19 -51 21 c-28 12 -51 27 -51 34
0 17 66 44 108 44 22 1 41 -7 57 -24z m52 -147 c-8 -63 -26 -80 -82 -76 -37 3
-40 5 -40 33 0 25 8 36 49 63 70 47 80 44 73 -20z m-58 -221 c-14 -42 -51 -77
-80 -77 -24 0 -24 15 0 32 13 10 18 24 17 53 -1 36 2 42 34 58 35 17 35 17 38
-5 2 -12 -2 -39 -9 -61z m-75 -130 c17 -12 17 -18 6 -51 -32 -97 -127 -149
-357 -192 -48 -9 -97 -22 -108 -30 -47 -33 -147 4 -153 58 -5 41 29 58 115 58
39 0 107 5 150 11 59 8 86 8 114 -1 56 -19 84 -7 115 48 57 100 66 112 83 112
9 0 25 -6 35 -13z m-1176 -100 c22 -13 22 -14 5 -29 -10 -9 -36 -25 -58 -36
-50 -26 -27 -40 28 -17 45 19 47 19 47 -2 0 -50 -97 -76 -121 -32 -22 42 23
130 66 129 5 -1 20 -6 33 -13z m116 -64 c-36 -57 -49 -72 -61 -73 -29 0 6 76
40 90 36 14 40 11 21 -17z m186 -8 c0 -44 -58 -101 -92 -91 -7 2 -25 7 -40 10
-33 8 -37 35 -9 60 37 33 141 49 141 21z m182 -16 c28 -7 40 -17 44 -36 12
-47 -4 -58 -100 -61 l-86 -3 0 33 c0 43 10 57 46 68 40 12 53 12 96 -1z"/>
<path d="M2780 3930 c0 -5 10 -10 23 -10 18 0 19 2 7 10 -19 13 -30 13 -30 0z"/>
</g>
</svg>
